<?xml version="1.0" standalone="no"?>
<!DOCTYPE svg PUBLIC "-//W3C//DTD SVG 20010904//EN"
 "http://www.w3.org/TR/2001/REC-SVG-20010904/DTD/svg10.dtd">
<svg version="1.0" xmlns="http://www.w3.org/2000/svg"
 width="500.000000pt" height="500.000000pt" viewBox="0 0 500.000000 500.000000"
 preserveAspectRatio="xMidYMid meet">

<g transform="translate(0.000000,500.000000) scale(0.100000,-0.100000)"
fill="#000000" stroke="none">
<path d="M0 2500 l0 -2500 2500 0 2500 0 0 2500 0 2500 -2500 0 -2500 0 0
-2500z m2656 1035 c4 -8 15 -15 25 -15 10 0 19 -4 19 -10 0 -5 -7 -10 -15 -10
-22 0 -19 -26 15 -110 35 -88 37 -133 10 -177 -11 -18 -15 -33 -10 -33 6 0 10
-6 10 -14 0 -7 9 -16 21 -19 14 -4 20 -12 17 -27 -3 -19 7 -26 67 -51 47 -19
88 -28 127 -28 49 -1 62 -5 91 -31 45 -39 90 -139 95 -215 4 -56 -14 -273 -25
-305 -10 -27 -34 71 -44 179 -10 111 -13 121 -34 121 -14 0 -19 18 -30 100 -4
25 -15 56 -26 69 -22 27 -36 22 -20 -7 18 -35 12 -86 -18 -152 l-28 -64 32
-45 c22 -33 37 -71 49 -131 10 -47 24 -98 32 -114 17 -35 7 -46 -40 -46 -27 0
-28 2 -23 35 9 56 -31 147 -102 233 -28 33 -34 27 -29 -28 5 -51 5 -51 -55
-113 -33 -34 -66 -76 -73 -92 -10 -25 -19 -31 -47 -33 -45 -3 -71 23 -43 44
10 7 22 15 25 16 3 2 30 31 60 66 l53 63 -6 52 c-10 71 -25 139 -35 155 -6 11
-19 8 -62 -15 -50 -26 -62 -28 -156 -26 l-102 1 -7 -36 c-4 -21 -15 -53 -24
-72 -11 -22 -15 -42 -10 -55 11 -30 48 -59 75 -60 32 -2 55 -23 55 -50 0 -31
-5 -33 -55 -21 -31 8 -59 26 -92 60 -47 46 -48 49 -50 114 -1 37 -2 69 -3 72
-6 27 -70 -194 -70 -242 0 -29 -9 -33 -60 -29 -34 3 -35 6 -13 38 20 28 74
254 73 306 0 15 -9 36 -20 47 -11 11 -20 32 -20 48 0 29 -18 68 -75 156 -34
54 -36 55 -54 39 -25 -26 -61 -88 -61 -107 0 -9 -11 -22 -25 -28 -22 -10 -28
-8 -47 12 -20 21 -21 32 -20 159 1 75 2 143 2 153 1 9 11 19 23 22 33 9 35 8
42 -15 6 -19 8 -19 25 -4 34 31 78 36 141 16 49 -17 103 -44 119 -61 3 -3 22
-13 44 -23 l38 -18 59 38 c33 22 63 50 70 66 6 15 21 30 33 33 28 7 82 101 78
135 -2 21 -10 28 -33 33 -18 3 -28 10 -24 17 4 6 13 8 21 5 9 -4 18 4 24 19 8
22 15 25 60 25 36 0 52 -4 56 -15z m-776 -1242 c0 -22 -1 -23 -16 -9 -22 22
-71 20 -83 -3 -14 -24 3 -46 51 -66 107 -44 72 -157 -42 -139 -37 6 -40 9 -39
38 1 17 3 24 6 15 11 -42 94 -43 105 -1 8 28 0 36 -59 66 -60 30 -75 61 -49
100 17 26 41 33 94 27 26 -3 32 -7 32 -28z m940 -1 c0 -24 -1 -24 -18 -9 -23
21 -81 22 -109 2 -32 -22 -48 -79 -33 -115 18 -42 54 -72 92 -73 l33 -2 0 58
c0 55 1 57 27 57 26 0 27 -2 17 -27 -5 -15 -9 -43 -7 -63 3 -33 1 -36 -32 -44
-109 -26 -202 78 -156 175 25 54 81 79 153 71 28 -4 33 -8 33 -30z m-1535 -62
c21 -50 41 -87 45 -83 4 4 22 45 41 91 26 65 37 82 53 82 20 0 21 -5 18 -111
-3 -86 -1 -114 10 -120 9 -6 3 -9 -17 -9 l-31 0 4 68 c7 123 1 126 -43 25 -21
-51 -42 -93 -45 -93 -4 0 -22 37 -41 83 -29 70 -34 78 -37 53 -2 -16 -2 -53 0
-83 3 -51 2 -53 -21 -53 -20 0 -22 3 -13 12 16 16 16 200 0 216 -9 9 -6 12 14
12 22 0 29 -10 63 -90z m232 76 c0 -7 10 -30 23 -50 l23 -37 24 40 c13 23 21
46 18 51 -4 6 5 10 21 10 26 0 26 -1 11 -18 -10 -10 -17 -22 -17 -26 0 -4 -11
-24 -25 -44 -27 -40 -35 -118 -13 -140 9 -9 5 -12 -18 -12 -29 0 -29 1 -26 45
5 60 -1 80 -42 143 l-35 52 28 0 c17 0 28 -5 28 -14z m532 -83 c19 -54 40
-108 48 -120 13 -22 12 -23 -14 -23 -22 0 -28 5 -30 23 -3 50 -21 77 -52 77
-26 0 -31 -5 -44 -44 -8 -25 -13 -47 -9 -50 3 -3 -8 -6 -24 -5 -16 0 -24 3
-17 5 6 3 30 57 54 120 23 62 45 114 48 114 4 0 22 -44 40 -97z m111 85 c0
-25 53 -159 60 -151 9 11 53 135 53 151 0 6 12 12 26 12 19 0 22 -3 12 -9 -8
-5 -10 -14 -6 -21 5 -8 4 -11 -2 -7 -5 3 -26 -41 -47 -99 -21 -57 -41 -104
-44 -104 -4 0 -25 48 -46 108 -22 59 -44 113 -49 120 -7 9 -3 12 17 12 14 0
26 -6 26 -12z m223 5 c-9 -3 -13 -36 -13 -113 0 -77 4 -110 13 -113 6 -3 -1
-6 -18 -6 l-30 -1 0 120 0 120 30 -1 c17 0 24 -3 18 -6z m123 -85 c58 -92 59
-93 62 -58 2 19 2 60 0 92 -3 56 -2 58 22 58 19 0 21 -3 12 -12 -8 -8 -12 -49
-12 -120 0 -134 -10 -139 -77 -32 -77 122 -74 121 -71 16 3 -76 0 -92 -12 -92
-13 0 -14 17 -12 111 3 86 1 114 -10 120 -9 6 -5 9 13 9 22 0 35 -14 85 -92z
m554 72 c24 -24 25 -38 6 -66 -13 -18 -13 -22 5 -37 25 -22 26 -85 2 -103 -10
-7 -43 -14 -73 -14 l-55 0 0 120 0 120 48 0 c34 0 53 -6 67 -20z m180 -72 c18
-51 39 -105 47 -120 13 -27 13 -28 -16 -28 -22 0 -29 4 -25 14 3 7 -2 30 -10
50 -12 30 -20 36 -44 36 -25 0 -31 -5 -42 -42 -8 -24 -13 -46 -12 -50 1 -5 -8
-8 -19 -8 -16 0 -19 3 -12 13 6 6 27 60 48 120 21 59 41 107 45 107 4 0 22
-42 40 -92z m176 -3 l59 -96 3 87 c2 63 -1 90 -10 96 -9 5 -5 8 12 8 l25 0 -3
-120 c-3 -111 -5 -120 -23 -120 -10 0 -19 3 -19 8 0 4 -25 45 -55 92 l-56 85
3 -93 c3 -90 3 -92 -20 -92 -19 0 -21 3 -12 19 5 11 10 56 10 101 0 45 -5 90
-10 101 -9 16 -7 19 13 19 20 0 35 -18 83 -95z m166 48 l-3 -48 46 48 c25 26
55 47 67 47 16 0 10 -9 -31 -46 l-50 -45 25 -42 c15 -23 40 -57 57 -74 l31
-33 -27 0 c-21 0 -35 12 -69 63 -46 67 -53 64 -46 -19 3 -43 2 -44 -26 -44
-23 0 -27 3 -18 12 16 16 16 200 0 216 -9 9 -5 12 18 12 29 0 29 -1 26 -47z"/>
<path d="M2375 3184 c-18 -14 -18 -14 2 -14 23 0 39 15 26 23 -5 3 -17 -1 -28
-9z"/>
<path d="M1992 2233 c-16 -29 -15 -33 8 -33 22 0 23 4 11 35 -8 19 -8 19 -19
-2z"/>
<path d="M2987 2286 c-3 -8 -4 -22 -2 -32 2 -11 4 -23 4 -27 1 -5 11 -7 22 -5
29 4 43 43 23 63 -19 19 -40 19 -47 1z"/>
<path d="M2988 2161 c-5 -52 -1 -61 26 -61 47 0 63 57 24 84 -35 25 -46 19
-50 -23z"/>
<path d="M3182 2232 c-10 -30 -10 -32 14 -32 20 0 23 3 16 18 -5 9 -11 24 -14
32 -3 9 -9 2 -16 -18z"/>
</g>
</svg>
